<!DOCTYPE svg PUBLIC "-//W3C//DTD SVG 1.1//EN" "https://www.w3.org/Graphics/SVG/1.1/DTD/svg11.dtd"><svg xmlns="http://www.w3.org/2000/svg" id="sfn-svg" class="sfn-workflow-graph" width="202" height="505">  
<g transform="translate(12,19.265625)"><g class="nodes"><g class="node-container" transform="translate(88.75,18.390625)"><g class="node anchor"><circle class="shape" x="-15.65625" y="-8.390625" r="25.65625"/><text class="label"><tspan xml:space="preserve" text-anchor="middle" alignment-baseline="central">Start</tspan></text></g></g><g class="node-container" transform="translate(88.75,450.859375)"><g class="node anchor"><circle class="shape" x="-12.1875" y="-8.390625" r="22.1875"/><text class="label"><tspan xml:space="preserve" text-anchor="middle" alignment-baseline="central">End</tspan></text></g></g><g class="node-container" transform="translate(88.75,80.171875)"><g class="node state Task NotYetStarted"><rect class="shape" rx="5" ry="5" x="-66.5625" y="-18.390625" width="133.125" height="36.78125"/><text class="label"><tspan xml:space="preserve" text-anchor="middle" alignment-baseline="central">DeleteStagingOld</tspan></text></g></g><g class="node-container" transform="translate(88.75,141.953125)"><g class="node state Task NotYetStarted"><rect class="shape" rx="5" ry="5" x="-81.203125" y="-18.390625" width="162.40625" height="36.78125"/><text class="label"><tspan xml:space="preserve" text-anchor="middle" alignment-baseline="central">ProcessDataToStaging</tspan></text></g></g><g class="node-container" transform="translate(88.75,203.734375)"><g class="node state Task NotYetStarted"><rect class="shape" rx="5" ry="5" x="-81.890625" y="-18.390625" width="163.78125" height="36.78125"/><text class="label"><tspan xml:space="preserve" text-anchor="middle" alignment-baseline="central">RunUpdateLogStaging</tspan></text></g></g><g class="node-container" transform="translate(88.75,265.515625)"><g class="node state Task NotYetStarted"><rect class="shape" rx="5" ry="5" x="-64.859375" y="-18.390625" width="129.71875" height="36.78125"/><text class="label"><tspan xml:space="preserve" text-anchor="middle" alignment-baseline="central">LoadToAnalytical</tspan></text></g></g><g class="node-container" transform="translate(88.75,327.296875)"><g class="node state Task NotYetStarted"><rect class="shape" rx="5" ry="5" x="-88.75" y="-18.390625" width="177.5" height="36.78125"/><text class="label"><tspan xml:space="preserve" text-anchor="middle" alignment-baseline="central">RunUpdateLogAnalytical</tspan></text></g></g><g class="node-container" transform="translate(88.75,389.078125)"><g class="node state Task NotYetStarted"><rect class="shape" rx="5" ry="5" x="-67.125" y="-18.390625" width="134.25" height="36.78125"/><text class="label"><tspan xml:space="preserve" text-anchor="middle" alignment-baseline="central">UpdateQuicksight</tspan></text></g></g></g><g class="edges"><g class="edge"><path class="path" marker-end="url(#arrowhead274)" d="M88.75,98.5625L88.75,100.64583333333331C88.75,102.72916666666666,88.75,106.89583333333331,88.75,111.06249999999999C88.75,115.22916666666666,88.75,119.39583333333333,88.75,121.47916666666666L88.75,123.5625" style="fill: none;"/><defs><marker id="arrowhead274" viewBox="0 0 10 10" refX="9" refY="5" markerUnits="strokeWidth" markerWidth="8" markerHeight="6" orient="auto"><path d="M 0 0 L 10 5 L 0 10 z"/></marker></defs></g><g class="edge"><path class="path" marker-end="url(#arrowhead275)" d="M88.75,44.046875L88.75,44.91927083333333C88.75,45.791666666666664,88.75,47.53645833333333,88.75,50.4921875C88.75,53.447916666666664,88.75,57.61458333333333,88.75,59.697916666666664L88.75,61.78125" style="fill: none;"/><defs><marker id="arrowhead275" viewBox="0 0 10 10" refX="9" refY="5" markerUnits="strokeWidth" markerWidth="8" markerHeight="6" orient="auto"><path d="M 0 0 L 10 5 L 0 10 z"/></marker></defs></g><g class="edge"><path class="path" marker-end="url(#arrowhead276)" d="M88.75,160.34375L88.75,162.42708333333331C88.75,164.51041666666666,88.75,168.67708333333331,88.75,172.84375C88.75,177.01041666666666,88.75,181.17708333333331,88.75,183.26041666666666L88.75,185.34375" style="fill: none;"/><defs><marker id="arrowhead276" viewBox="0 0 10 10" refX="9" refY="5" markerUnits="strokeWidth" markerWidth="8" markerHeight="6" orient="auto"><path d="M 0 0 L 10 5 L 0 10 z"/></marker></defs></g><g class="edge"><path class="path" marker-end="url(#arrowhead277)" d="M88.75,222.125L88.75,224.2083333333333C88.75,226.29166666666663,88.75,230.45833333333331,88.75,234.625C88.75,238.79166666666666,88.75,242.95833333333331,88.75,245.04166666666666L88.75,247.125" style="fill: none;"/><defs><marker id="arrowhead277" viewBox="0 0 10 10" refX="9" refY="5" markerUnits="strokeWidth" markerWidth="8" markerHeight="6" orient="auto"><path d="M 0 0 L 10 5 L 0 10 z"/></marker></defs></g><g class="edge"><path class="path" marker-end="url(#arrowhead278)" d="M88.75,283.90625L88.75,285.9895833333333C88.75,288.07291666666663,88.75,292.2395833333333,88.75,296.40625C88.75,300.57291666666663,88.75,304.7395833333333,88.75,306.82291666666663L88.75,308.90625" style="fill: none;"/><defs><marker id="arrowhead278" viewBox="0 0 10 10" refX="9" refY="5" markerUnits="strokeWidth" markerWidth="8" markerHeight="6" orient="auto"><path d="M 0 0 L 10 5 L 0 10 z"/></marker></defs></g><g class="edge"><path class="path" marker-end="url(#arrowhead279)" d="M88.75,345.6875L88.75,347.7708333333333C88.75,349.85416666666663,88.75,354.0208333333333,88.75,358.1875C88.75,362.35416666666663,88.75,366.5208333333333,88.75,368.6041666666667L88.75,370.6875" style="fill: none;"/><defs><marker id="arrowhead279" viewBox="0 0 10 10" refX="9" refY="5" markerUnits="strokeWidth" markerWidth="8" markerHeight="6" orient="auto"><path d="M 0 0 L 10 5 L 0 10 z"/></marker></defs></g><g class="edge"><path class="path" marker-end="url(#arrowhead280)" d="M88.75,407.46875L88.75,409.55208333333326C88.75,411.63541666666663,88.75,415.80208333333326,88.75,419.33593749999994C88.75,422.86979166666663,88.75,425.7708333333333,88.75,427.22135416666663L88.75,428.671875" style="fill: none;"/><defs><marker id="arrowhead280" viewBox="0 0 10 10" refX="9" refY="5" markerUnits="strokeWidth" markerWidth="8" markerHeight="6" orient="auto"><path d="M 0 0 L 10 5 L 0 10 z"/></marker></defs></g></g></g><style xmlns="http://www.w3.org/1999/xhtml">.node &gt; .shape {stroke: #555555;stroke-width: 0.6px;fill: #FFFFFF;} path {stroke: #555;background-color: #555;stroke-width: 1px;} .node.state.NotYetStarted &gt; .shape,.node.state.Container &gt; .shape {stroke-dasharray: 5 2;} .node.state.Failed &gt; .shape,rect.legend.Failed {fill: #DE322F;} .node.state.CaughtError &gt; .shape,rect.legend.CaughtError {fill: #FFA500;} .node.state.Succeeded &gt; .shape,rect.legend.Succeeded {fill: #2BD62E;} .node.state.InProgress &gt; .shape,rect.legend.InProgress {fill: #53c9ed;} .node.state.Cancelled &gt; .shape,rect.legend.Cancelled {fill: #dddddd;} .node.anchor &gt; .shape {fill: #FFDA75;} .node.state.hovered:not(.selected):not(.NotYetStarted) &gt; .shape,.node.selected &gt; .shape {stroke: #555555;stroke-width: 2px;} .node.state.Container.Failed &gt; .shape {fill: #EE9592;} .node.state.Container.CaughtError &gt; .shape {fill: #FFD27F;} .node.state.Container.Succeeded &gt; .shape {fill: #91EA9A;} .node.state.Container.InProgress &gt; .shape {fill :#A9E4F7;} .node.state.Container.Cancelled &gt; .shape {fill: #EEEEEE;} marker {fill: #555555;} .node.anchor,.node.state.NotYetStarted {cursor: default;} .node.state {cursor: pointer;} tspan .label {font-weight: normal;font-size: 12px;text-shadow: none;} </style></svg>