<!DOCTYPE svg PUBLIC "-//W3C//DTD SVG 1.1//EN" "https://www.w3.org/Graphics/SVG/1.1/DTD/svg11.dtd"><svg xmlns="http://www.w3.org/2000/svg" id="sfn-svg" class="sfn-workflow-graph" width="426" height="441">  
<g transform="translate(12,19.265625)"><g class="nodes"><g class="node-container" transform="translate(200.578125,18.390625)"><g class="node anchor"><circle class="shape" x="-15.65625" y="-8.390625" r="25.65625"/><text class="label"><tspan xml:space="preserve" text-anchor="middle" alignment-baseline="central">Start</tspan></text></g></g><g class="node-container" transform="translate(200.578125,387.296875)"><g class="node anchor"><circle class="shape" x="-12.1875" y="-8.390625" r="22.1875"/><text class="label"><tspan xml:space="preserve" text-anchor="middle" alignment-baseline="central">End</tspan></text></g></g><g class="node-container" transform="translate(200.578125,80.171875)"><g class="node state Task NotYetStarted"><rect class="shape" rx="5" ry="5" x="-68.453125" y="-18.390625" width="136.90625" height="36.78125"/><text class="label"><tspan xml:space="preserve" text-anchor="middle" alignment-baseline="central">CreateDataStream</tspan></text></g></g><g class="node-container" transform="translate(200.578125,202.84375)"><g class="node state Parallel NotYetStarted Container" transform="translate(-200.578125,-79.28125)"><rect class="shape" rx="31.7125" ry="31.7125" x="0" y="0" width="401.15625" height="158.5625"/><g class="branches" transform="translate(20,40)"><g class="branch" transform="translate(0,0)"><g class="nodes"><g class="node-container" transform="translate(76.234375,18.390625)"><g class="node state Task NotYetStarted"><rect class="shape" rx="5" ry="5" x="-76.234375" y="-18.390625" width="152.46875" height="36.78125"/><text class="label"><tspan xml:space="preserve" text-anchor="middle" alignment-baseline="central">RunKinesisConsumer</tspan></text></g></g></g><g class="edges"/></g><g class="branch" transform="translate(172.46875,0)"><g class="nodes"><g class="node-container" transform="translate(94.34375,18.390625)"><g class="node state Wait NotYetStarted"><rect class="shape" rx="5" ry="5" x="-66.328125" y="-18.390625" width="132.65625" height="36.78125"/><text class="label"><tspan xml:space="preserve" text-anchor="middle" alignment-baseline="central">wait_ten_seconds</tspan></text></g></g><g class="node-container" transform="translate(94.34375,80.171875)"><g class="node state Task NotYetStarted"><rect class="shape" rx="5" ry="5" x="-94.34375" y="-18.390625" width="188.6875" height="36.78125"/><text class="label"><tspan xml:space="preserve" text-anchor="middle" alignment-baseline="central">SendTweetsToDataStream</tspan></text></g></g></g><g class="edges"><g class="edge"><path class="path" marker-end="url(#arrowhead267)" d="M94.34375,36.78125L94.34374999999999,38.86458333333333C94.34375,40.947916666666664,94.34375,45.11458333333333,94.34374999999999,49.28125C94.34375,53.447916666666664,94.34375,57.61458333333333,94.34374999999999,59.697916666666664L94.34375,61.78125" style="fill: none;"/><defs><marker id="arrowhead267" viewBox="0 0 10 10" refX="9" refY="5" markerUnits="strokeWidth" markerWidth="8" markerHeight="6" orient="auto"><path d="M 0 0 L 10 5 L 0 10 z"/></marker></defs></g></g></g></g><path class="path" marker-end="url(#arrowhead268)" d="M200.578125,0L200.578125,3.333333333333333C200.578125,6.666666666666666,200.578125,13.333333333333332,183.1875,16.666666666666664C165.796875,20,131.015625,20,113.625,23.33333333333333C96.234375,26.666666666666664,96.234375,33.33333333333333,96.234375,36.666666666666664L96.234375,40" style="fill: none;"/><path class="path" marker-end="url(#arrowhead269)" d="M200.578125,0L200.578125,3.333333333333333C200.578125,6.666666666666666,200.578125,13.333333333333332,214.95052083333331,16.666666666666664C229.32291666666666,20,258.0677083333333,20,272.44010416666663,23.33333333333333C286.8125,26.666666666666664,286.8125,33.33333333333333,286.81249999999994,36.666666666666664L286.8125,40" style="fill: none;"/></g></g><g class="node-container" transform="translate(200.578125,325.515625)"><g class="node state Task NotYetStarted"><rect class="shape" rx="5" ry="5" x="-68.4375" y="-18.390625" width="136.875" height="36.78125"/><text class="label"><tspan xml:space="preserve" text-anchor="middle" alignment-baseline="central">DeleteDataStream</tspan></text></g></g></g><g class="edges"><g class="edge"><path class="path" marker-end="url(#arrowhead270)" d="M200.578125,98.5625L200.578125,100.64583333333331C200.578125,102.72916666666666,200.578125,106.89583333333331,200.578125,111.06249999999999C200.578125,115.22916666666666,200.578125,119.39583333333333,200.578125,121.47916666666666L200.578125,123.5625" style="fill: none;"/><defs><marker id="arrowhead270" viewBox="0 0 10 10" refX="9" refY="5" markerUnits="strokeWidth" markerWidth="8" markerHeight="6" orient="auto"><path d="M 0 0 L 10 5 L 0 10 z"/></marker></defs></g><g class="edge"><path class="path" marker-end="url(#arrowhead271)" d="M200.578125,44.046875L200.578125,44.91927083333333C200.578125,45.791666666666664,200.578125,47.53645833333333,200.578125,50.4921875C200.578125,53.447916666666664,200.578125,57.61458333333333,200.578125,59.697916666666664L200.578125,61.78125" style="fill: none;"/><defs><marker id="arrowhead271" viewBox="0 0 10 10" refX="9" refY="5" markerUnits="strokeWidth" markerWidth="8" markerHeight="6" orient="auto"><path d="M 0 0 L 10 5 L 0 10 z"/></marker></defs></g><g class="edge"><path class="path" marker-end="url(#arrowhead272)" d="M200.578125,282.125L200.578125,284.2083333333333C200.578125,286.29166666666663,200.578125,290.4583333333333,200.578125,294.625C200.578125,298.79166666666663,200.578125,302.9583333333333,200.578125,305.04166666666663L200.578125,307.125" style="fill: none;"/><defs><marker id="arrowhead272" viewBox="0 0 10 10" refX="9" refY="5" markerUnits="strokeWidth" markerWidth="8" markerHeight="6" orient="auto"><path d="M 0 0 L 10 5 L 0 10 z"/></marker></defs></g><g class="edge"><path class="path" marker-end="url(#arrowhead273)" d="M200.578125,343.90625L200.578125,345.9895833333333C200.578125,348.07291666666663,200.578125,352.2395833333333,200.578125,355.7734375C200.578125,359.30729166666663,200.578125,362.2083333333333,200.578125,363.6588541666667L200.578125,365.109375" style="fill: none;"/><defs><marker id="arrowhead273" viewBox="0 0 10 10" refX="9" refY="5" markerUnits="strokeWidth" markerWidth="8" markerHeight="6" orient="auto"><path d="M 0 0 L 10 5 L 0 10 z"/></marker></defs></g></g></g><style xmlns="http://www.w3.org/1999/xhtml">.node &gt; .shape {stroke: #555555;stroke-width: 0.6px;fill: #FFFFFF;} path {stroke: #555;background-color: #555;stroke-width: 1px;} .node.state.NotYetStarted &gt; .shape,.node.state.Container &gt; .shape {stroke-dasharray: 5 2;} .node.state.Failed &gt; .shape,rect.legend.Failed {fill: #DE322F;} .node.state.CaughtError &gt; .shape,rect.legend.CaughtError {fill: #FFA500;} .node.state.Succeeded &gt; .shape,rect.legend.Succeeded {fill: #2BD62E;} .node.state.InProgress &gt; .shape,rect.legend.InProgress {fill: #53c9ed;} .node.state.Cancelled &gt; .shape,rect.legend.Cancelled {fill: #dddddd;} .node.anchor &gt; .shape {fill: #FFDA75;} .node.state.hovered:not(.selected):not(.NotYetStarted) &gt; .shape,.node.selected &gt; .shape {stroke: #555555;stroke-width: 2px;} .node.state.Container.Failed &gt; .shape {fill: #EE9592;} .node.state.Container.CaughtError &gt; .shape {fill: #FFD27F;} .node.state.Container.Succeeded &gt; .shape {fill: #91EA9A;} .node.state.Container.InProgress &gt; .shape {fill :#A9E4F7;} .node.state.Container.Cancelled &gt; .shape {fill: #EEEEEE;} marker {fill: #555555;} .node.anchor,.node.state.NotYetStarted {cursor: default;} .node.state {cursor: pointer;} tspan .label {font-weight: normal;font-size: 12px;text-shadow: none;} </style></svg>